<svg xmlns="http://www.w3.org/2000/svg">
<!-- Icônes du site (tracés Lucide, licence ISC). Un seul fichier mis en cache,
     utilisé par <svg class="ic"><use href="img/icons.svg#i-nom"/></svg>.
     Remplace la librairie lucide.min.js (400 Ko) sur les pages du nouveau design. -->
<symbol id="i-phone" viewBox="0 0 24 24"><path d="M22 16.92v3a2 2 0 0 1-2.18 2 19.79 19.79 0 0 1-8.63-3.07 19.5 19.5 0 0 1-6-6 19.79 19.79 0 0 1-3.07-8.67A2 2 0 0 1 4.11 2h3a2 2 0 0 1 2 1.72 12.84 12.84 0 0 0 .7 2.81 2 2 0 0 1-.45 2.11L8.09 9.91a16 16 0 0 0 6 6l1.27-1.27a2 2 0 0 1 2.11-.45 12.84 12.84 0 0 0 2.81.7A2 2 0 0 1 22 16.92z"/><path d="M14.05 2a9 9 0 0 1 8 7.94"/><path d="M14.05 6A5 5 0 0 1 18 10"/></symbol>
<symbol id="i-file" viewBox="0 0 24 24"><path d="M14.5 2H6a2 2 0 0 0-2 2v16a2 2 0 0 0 2 2h12a2 2 0 0 0 2-2V7.5L14.5 2z"/><polyline points="14 2 14 8 20 8"/><line x1="16" y1="13" x2="8" y2="13"/><line x1="16" y1="17" x2="8" y2="17"/><line x1="10" y1="9" x2="8" y2="9"/></symbol>
<symbol id="i-message" viewBox="0 0 24 24"><path d="M7.9 20A9 9 0 1 0 4 16.1L2 22Z"/></symbol>
<symbol id="i-arrow-up" viewBox="0 0 24 24"><path d="m5 12 7-7 7 7"/><path d="M12 19V5"/></symbol>
<symbol id="i-arrow-right" viewBox="0 0 24 24"><path d="M5 12h14"/><path d="m12 5 7 7-7 7"/></symbol>
<symbol id="i-tag" viewBox="0 0 24 24"><path d="M12.586 2.586A2 2 0 0 0 11.172 2H4a2 2 0 0 0-2 2v7.172a2 2 0 0 0 .586 1.414l8.704 8.704a2.426 2.426 0 0 0 3.42 0l6.58-6.58a2.426 2.426 0 0 0 0-3.42z"/><circle cx="7.5" cy="7.5" r="1"/></symbol>
<symbol id="i-pin" viewBox="0 0 24 24"><path d="M20 10c0 6-8 12-8 12s-8-6-8-12a8 8 0 0 1 16 0Z"/><circle cx="12" cy="10" r="3"/></symbol>
<symbol id="i-wrench" viewBox="0 0 24 24"><path d="M14.7 6.3a1 1 0 0 0 0 1.4l1.6 1.6a1 1 0 0 0 1.4 0l3.77-3.77a6 6 0 0 1-7.94 7.94l-6.91 6.91a2.12 2.12 0 0 1-3-3l6.91-6.91a6 6 0 0 1 7.94-7.94l-3.76 3.76z"/></symbol>
<symbol id="i-disc" viewBox="0 0 24 24"><circle cx="12" cy="12" r="10"/><circle cx="12" cy="12" r="2"/></symbol>
<symbol id="i-menu" viewBox="0 0 24 24"><line x1="4" y1="6" x2="20" y2="6"/><line x1="4" y1="12" x2="20" y2="12"/><line x1="4" y1="18" x2="20" y2="18"/></symbol>
<symbol id="i-x" viewBox="0 0 24 24"><path d="M18 6 6 18"/><path d="m6 6 12 12"/></symbol>
<symbol id="i-truck" viewBox="0 0 24 24"><path d="M14 18V6a2 2 0 0 0-2-2H4a2 2 0 0 0-2 2v11a1 1 0 0 0 1 1h2"/><path d="M15 18H9"/><path d="M19 18h2a1 1 0 0 0 1-1v-3.65a1 1 0 0 0-.22-.624l-3.48-4.35A1 1 0 0 0 17.52 8H14"/><circle cx="17" cy="18" r="2"/><circle cx="7" cy="18" r="2"/></symbol>
<symbol id="i-fuel" viewBox="0 0 24 24"><line x1="3" y1="22" x2="15" y2="22"/><line x1="4" y1="9" x2="14" y2="9"/><path d="M14 22V4a2 2 0 0 0-2-2H6a2 2 0 0 0-2 2v18"/><path d="M14 13h2a2 2 0 0 1 2 2v2a2 2 0 0 0 2 2a2 2 0 0 0 2-2V9.83a2 2 0 0 0-.59-1.42L18 5"/></symbol>
<symbol id="i-battery" viewBox="0 0 24 24"><rect width="16" height="10" x="2" y="7" rx="2" ry="2"/><line x1="22" y1="11" x2="22" y2="13"/><line x1="6" y1="11" x2="6" y2="13"/></symbol>
<symbol id="i-thermo" viewBox="0 0 24 24"><path d="M14 4v10.54a4 4 0 1 1-4 0V4a2 2 0 0 1 4 0Z"/></symbol>
<symbol id="i-wheel" viewBox="0 0 24 24"><circle cx="12" cy="12" r="10"/><circle cx="12" cy="12" r="3.5"/><line x1="12" y1="2" x2="12" y2="8.5"/><line x1="12" y1="15.5" x2="12" y2="22"/><line x1="2" y1="12" x2="8.5" y2="12"/><line x1="15.5" y1="12" x2="22" y2="12"/></symbol>
<symbol id="i-check" viewBox="0 0 24 24"><path d="M22 11.08V12a10 10 0 1 1-5.93-9.14"/><path d="m9 11 3 3L22 4"/></symbol>
<symbol id="i-clock" viewBox="0 0 24 24"><circle cx="12" cy="12" r="10"/><polyline points="12 6 12 12 16 14"/></symbol>
<symbol id="i-shield" viewBox="0 0 24 24"><path d="M20 13c0 5-3.5 7.5-7.66 8.95a1 1 0 0 1-.67-.01C7.5 20.5 4 18 4 13V6a1 1 0 0 1 1-1c2 0 4.5-1.2 6.24-2.72a1.17 1.17 0 0 1 1.52 0C14.51 3.81 17 5 19 5a1 1 0 0 1 1 1z"/><path d="m9 12 2 2 4-4"/></symbol>
<symbol id="i-chevron" viewBox="0 0 24 24"><path d="m6 9 6 6 6-6"/></symbol>
<symbol id="i-star" viewBox="0 0 24 24"><path d="M12 2l3.09 6.26L22 9.27l-5 4.87 1.18 6.88L12 17.77l-6.18 3.25L7 14.14 2 9.27l6.91-1.01L12 2z"/></symbol>
<symbol id="i-link" viewBox="0 0 24 24"><path d="M10 13a5 5 0 0 0 7.54.54l3-3a5 5 0 0 0-7.07-7.07l-1.72 1.71"/><path d="M14 11a5 5 0 0 0-7.54-.54l-3 3a5 5 0 0 0 7.07 7.07l1.71-1.71"/></symbol>
<symbol id="i-card" viewBox="0 0 24 24"><rect width="20" height="14" x="2" y="5" rx="2"/><line x1="2" y1="10" x2="22" y2="10"/></symbol>
<symbol id="i-timer" viewBox="0 0 24 24"><line x1="10" y1="2" x2="14" y2="2"/><line x1="12" y1="14" x2="15" y2="11"/><circle cx="12" cy="14" r="8"/></symbol>
<symbol id="i-lock" viewBox="0 0 24 24"><rect width="18" height="11" x="3" y="11" rx="2" ry="2"/><path d="M7 11V7a5 5 0 0 1 10 0v4"/></symbol>
<symbol id="i-key" viewBox="0 0 24 24"><path d="M2.586 17.414A2 2 0 0 0 2 18.828V21a1 1 0 0 0 1 1h3a1 1 0 0 0 1-1v-1a1 1 0 0 1 1-1h1a1 1 0 0 0 1-1v-1a1 1 0 0 1 1-1h.172a2 2 0 0 0 1.414-.586l.814-.814a6.5 6.5 0 1 0-4-4z"/><circle cx="16.5" cy="7.5" r=".5"/></symbol>
<symbol id="i-alert" viewBox="0 0 24 24"><path d="m21.73 18-8-14a2 2 0 0 0-3.48 0l-8 14A2 2 0 0 0 4 21h16a2 2 0 0 0 1.73-3"/><path d="M12 9v4"/><path d="M12 17h.01"/></symbol>
<symbol id="i-calendar" viewBox="0 0 24 24"><path d="M8 2v4"/><path d="M16 2v4"/><rect width="18" height="18" x="3" y="4" rx="2"/><path d="M3 10h18"/></symbol>
<symbol id="i-book" viewBox="0 0 24 24"><path d="M12 7v14"/><path d="M3 18a1 1 0 0 1-1-1V4a1 1 0 0 1 1-1h5a4 4 0 0 1 4 4 4 4 0 0 1 4-4h5a1 1 0 0 1 1 1v13a1 1 0 0 1-1 1h-6a3 3 0 0 0-3 3 3 3 0 0 0-3-3z"/></symbol>
<symbol id="i-bike" viewBox="0 0 24 24"><circle cx="18.5" cy="17.5" r="3.5"/><circle cx="5.5" cy="17.5" r="3.5"/><circle cx="15" cy="5" r="1"/><path d="M12 17.5V14l-3-3 4-3 2 3h2"/></symbol>
<symbol id="i-car" viewBox="0 0 24 24"><path d="M19 17h2c.6 0 1-.4 1-1v-3c0-.9-.7-1.7-1.5-1.9C18.7 10.6 16 10 16 10s-1.3-1.4-2.2-2.3c-.5-.4-1.1-.7-1.8-.7H5c-.6 0-1.1.4-1.4.9l-1.4 2.9A3.7 3.7 0 0 0 2 12v4c0 .6.4 1 1 1h2"/><circle cx="7" cy="17" r="2"/><path d="M9 17h6"/><circle cx="17" cy="17" r="2"/></symbol>
<symbol id="i-recycle" viewBox="0 0 24 24"><path d="M7 19H4.815a1.83 1.83 0 0 1-1.57-.881 1.785 1.785 0 0 1-.004-1.784L7.196 9.5"/><path d="M11 19h8.203a1.83 1.83 0 0 0 1.556-.89 1.784 1.784 0 0 0 0-1.775l-1.226-2.12"/><path d="m14 16-3 3 3 3"/><path d="M8.293 13.596 7.196 9.5 3.1 10.598"/><path d="m9.344 5.811 1.093-1.892A1.83 1.83 0 0 1 11.985 3a1.784 1.784 0 0 1 1.546.888l3.943 6.843"/><path d="m13.378 9.633 4.096 1.098 1.097-4.096"/></symbol>
<symbol id="i-parking" viewBox="0 0 24 24"><rect width="18" height="18" x="3" y="3" rx="2"/><path d="M9 17V7h4a3 3 0 0 1 0 6H9"/></symbol>
<symbol id="i-plane" viewBox="0 0 24 24"><path d="M17.8 19.2 16 11l3.5-3.5C21 6 21.5 4 21 3c-1-.5-3 0-4.5 1.5L13 8 4.8 6.2c-.5-.1-.9.1-1.1.5l-.3.5c-.2.5-.1 1 .3 1.3L9 12l-2 3H4l-1 1 3 2 2 3 1-1v-3l3-2 3.5 5.3c.3.4.8.5 1.3.3l.5-.2c.4-.3.6-.7.5-1.2z"/></symbol>
<symbol id="i-bolt" viewBox="0 0 24 24"><path d="M4 14a1 1 0 0 1-.78-1.63l9.9-10.2a.5.5 0 0 1 .86.46l-1.92 6.02A1 1 0 0 0 13 10h7a1 1 0 0 1 .78 1.63l-9.9 10.2a.5.5 0 0 1-.86-.46l1.92-6.02A1 1 0 0 0 11 14z"/></symbol>
<symbol id="i-box" viewBox="0 0 24 24"><path d="M21 8a2 2 0 0 0-1-1.73l-7-4a2 2 0 0 0-2 0l-7 4A2 2 0 0 0 3 8v8a2 2 0 0 0 1 1.73l7 4a2 2 0 0 0 2 0l7-4A2 2 0 0 0 21 16Z"/><path d="m3.3 7 8.7 5 8.7-5"/><path d="M12 22V12"/></symbol>
<symbol id="i-route" viewBox="0 0 24 24"><circle cx="6" cy="19" r="3"/><path d="M9 19h8.5a3.5 3.5 0 0 0 0-7h-11a3.5 3.5 0 0 1 0-7H15"/><circle cx="18" cy="5" r="3"/></symbol>
<symbol id="i-gauge" viewBox="0 0 24 24"><path d="m12 14 4-4"/><path d="M3.34 19a10 10 0 1 1 17.32 0"/></symbol>
<symbol id="i-snow" viewBox="0 0 24 24"><path d="M2 12h20"/><path d="M12 2v20"/><path d="m20 16-4-4 4-4"/><path d="m4 8 4 4-4 4"/><path d="m16 4-4 4-4-4"/><path d="m8 20 4-4 4 4"/></symbol>
<symbol id="i-anchor" viewBox="0 0 24 24"><path d="M12 22V8"/><path d="M5 12H2a10 10 0 0 0 20 0h-3"/><circle cx="12" cy="5" r="3"/></symbol>
<symbol id="i-euro" viewBox="0 0 24 24"><path d="M4 10h12"/><path d="M4 14h9"/><path d="M19 6a7.7 7.7 0 0 0-5.2-2A7.9 7.9 0 0 0 6 12c0 4.4 3.5 8 7.8 8 2 0 3.8-.8 5.2-2"/></symbol>
<symbol id="i-building" viewBox="0 0 24 24"><rect width="16" height="20" x="4" y="2" rx="2" ry="2"/><path d="M9 22v-4h6v4"/><path d="M8 6h.01"/><path d="M16 6h.01"/><path d="M12 6h.01"/><path d="M12 10h.01"/><path d="M12 14h.01"/><path d="M16 10h.01"/><path d="M16 14h.01"/><path d="M8 10h.01"/><path d="M8 14h.01"/></symbol>
<symbol id="i-info" viewBox="0 0 24 24"><circle cx="12" cy="12" r="10"/><path d="M12 16v-4"/><path d="M12 8h.01"/></symbol>
</svg>
